PathFileType	4	(X/Y/Z)	path1_14_0-593.trc
DataRate	CameraRate	NumFrames	NumMarkers	Units	OrigDataRate	OrigDataStartFrame	OrigNumFrames
30	30	4	22	m	30	0	593
Frame#	Time	Hip			RHip			RKnee			RAnkle			RBigToe			RSmallToe			RHeel			LHip			LKnee			LAnkle			LBigToe			LSmallToe			LHeel			Neck			Head			Nose			RShoulder			RElbow			RWrist			LShoulder			LElbow			LWrist		
		X1	Y1	Z1	X2	Y2	Z2	X3	Y3	Z3	X4	Y4	Z4	X5	Y5	Z5	X6	Y6	Z6	X7	Y7	Z7	X8	Y8	Z8	X9	Y9	Z9	X10	Y10	Z10	X11	Y11	Z11	X12	Y12	Z12	X13	Y13	Z13	X14	Y14	Z14	X15	Y15	Z15	X16	Y16	Z16	X17	Y17	Z17	X18	Y18	Z18	X19	Y19	Z19	X20	Y20	Z20	X21	Y21	Z21	X22	Y22	Z22
1	0.0333333333333333	2.502332198773798	0.836769320526206	0.5748123234620295	2.504680758673188	0.82012176509539	0.4878770674296692	2.480490796046256	0.4631219892788453	0.4988492418086184	2.542213917508493	0.09934595567136754	0.5372141242669726	2.356945639003277	0.018030183908222898	0.5204904278329766	2.391748780618707	0.022048970577399078	0.4553772661277966	2.584775951348704	0.04049453463020863	0.5360801302124671	2.4959423457229803	0.8157021279458824	0.6590091803348086	2.49868901534061	0.4406155700294357	0.6467964818965184	2.544965532703174	0.09007845341733928	0.6420214840731404	2.3623510527367118	0.014618666335916852	0.6583564863324494	2.400284695430917	0.020355568168178212	0.7224518469759083	2.5929475682329692	0.03395144600091987	0.6489928636714065	2.4764374950329047	1.4720025744124123	0.5970363054956345	2.4233323726758895	1.7397051539592583	0.5483308461798821	2.3415861122848445	1.6011407719665083	0.5667142002283929	2.5139855872719	1.3815056399815002	0.4312487173283058	2.554038603516604	1.0833494539804807	0.4127012279192453	2.528737839906877	0.8507815296210447	0.38457959679522385	2.49983460085192	1.3617613318273425	0.7362943095221616	2.5460374759899116	1.0627768280476804	0.7596105391957743	2.528554869769832	0.838441535703498	0.7821926339134182
2	0.0666666666666666	2.502044332967689	0.8388645762687127	0.5744800839568625	2.5036428668336668	0.8202849375961854	0.49066915893128793	2.4799336614109526	0.46565958821804343	0.49886536601288045	2.5430635978514537	0.09993724473380473	0.5388756240858183	2.354908778432255	0.026127280420617717	0.5214900258072156	2.388364855557449	0.023709581897611246	0.45828911970708774	2.584384244993416	0.03966676263680425	0.5331071081828729	2.496557033885897	0.8172976116822489	0.6585382033717584	2.500969996700518	0.4437825103089088	0.6453618527388985	2.5470812880128237	0.08893782481331808	0.6402506619124517	2.363281663999537	0.016884695089347427	0.6590364066027901	2.401151206328319	0.019826549360595077	0.7172739462494977	2.593865238667598	0.03375657059281381	0.6536600194992211	2.4764948869945833	1.4712138878597552	0.5970866916969895	2.4246274552100258	1.7354879094439077	0.5475219519772624	2.3417067457229934	1.6007346955241586	0.5671719079310525	2.512873952953064	1.376810051497256	0.4237997226980479	2.550986845353735	1.0819308059056354	0.40608194960895233	2.5283576605455913	0.8518870707187338	0.3821882850262745	2.500132948127014	1.362959498150646	0.7339555785021327	2.540688896012173	1.0697128444862405	0.7665747270592768	2.531887983932477	0.8417754958849497	0.7780569684595486
3	0.1	2.5019249831490127	0.8405816462298015	0.5741417547151589	2.5030947313471814	0.8202401143804199	0.4930428461706964	2.4795981605613067	0.46761009802747644	0.4987961631848083	2.5438027536518333	0.10033323526040958	0.5402919776008919	2.353090722337587	0.03261044834602256	0.5223853398745945	2.3854705728508416	0.025003430101945164	0.4607114560953618	2.5842515657115332	0.0388882759837264	0.5311442958304926	2.4973054568038324	0.8184754045279506	0.6581949651918994	2.5029032404125506	0.4463915662639488	0.6446673571357948	2.5486162791682374	0.08806485397123387	0.6389449860123833	2.3640954246279433	0.018765002468654743	0.6597270547255238	2.4018279899849957	0.018944127079507374	0.7125601827980623	2.593880272678579	0.03381186751741322	0.656802709350084	2.476579341574457	1.470629788640536	0.5969476503727774	2.426021597886388	1.7319681311009387	0.5466297839408143	2.3419220637256304	1.600532580177217	0.567553353268159	2.5116429833128606	1.3715548923458236	0.4160409489147869	2.548014670879667	1.0808669944397327	0.3995015581424741	2.5280536162315035	0.852645640023358	0.3802417041698135	2.5001887719248566	1.3636829619262585	0.7324515906422524	2.5364675494662556	1.0750827628574018	0.7720410054895417	2.5345223895867606	0.8442692418210752	0.7746815208203972
4	0.1333333333333333	2.5020721550031486	0.8417395161061969	0.5737962578467587	2.503140863293833	0.8199032204374503	0.49473655421933826	2.479531633370511	0.46872471107575564	0.49861304623453034	2.544330529429135	0.1005047019144602	0.5412019942841667	2.351661997803776	0.0367503222410411	0.5231896035080505	2.383402976932176	0.025735813805733036	0.46244214600922245	2.584594785013679	0.038129077446244435	0.5303031633589458	2.498130582560703	0.8190028835236187	0.6579499008014625	2.504272194766529	0.44813366040952524	0.6446480107692364	2.5493646845009765	0.08759212449398297	0.6382793023292324	2.3647812653179083	0.020125188818490028	0.6604654922107687	2.4022619771975853	0.017728007981299913	0.7087682576669803	2.5928390280979476	0.03421360649541948	0.6578587822635169	2.476748750251581	1.470337318571837	0.5965886531689799	2.4275897176120655	1.7294461621040609	0.5457574907420922	2.3423433717389055	1.6005940398992193	0.5679832931469242	2.5104080640738133	1.3659437943271087	0.40836829984019674	2.545603183789543	1.0801988463912522	0.39389406983544517	2.527914261923244	0.8528946222316791	0.37891357949002674	2.4999260436217283	1.3636919291906484	0.7323209147621275	2.533889927285733	1.0781848195472337	0.7754368745938913	2.536144493664367	0.8455521518717266	0.7724648792451961
